<svg width="30" height="30" viewBox="0 0 30 30" fill="none" xmlns="http://www.w3.org/2000/svg">
<mask id="path-1-inside-1_211_269" fill="white">
<path d="M11 1C11 0.447716 11.4477 0 12 0H18C18.5523 0 19 0.447715 19 1V29C19 29.5523 18.5523 30 18 30H12C11.4477 30 11 29.5523 11 29V1Z"/>
</mask>
<path d="M11 1C11 -1.20914 12.7909 -3 15 -3H18C20.2091 -3 22 -1.20914 22 1L16 3H12C11.4477 3 11 3 11 3V1ZM22 29C22 31.2091 20.2091 33 18 33H15C12.7909 33 11 31.2091 11 29V27C11 27 11.4477 27 12 27H16L22 29ZM11 30V0V30ZM18 -3C20.2091 -3 22 -1.20914 22 1V29C22 31.2091 20.2091 33 18 33L16 27V3L18 -3Z" fill="white" mask="url(#path-1-inside-1_211_269)"/>
</svg>
