<svg width="30" height="30" viewBox="0 0 30 30" fill="none" xmlns="http://www.w3.org/2000/svg">
<mask id="path-1-inside-1_211_267" fill="white">
<path d="M11 1C11 0.447716 11.4477 0 12 0H18C18.5523 0 19 0.447715 19 1V29C19 29.5523 18.5523 30 18 30H12C11.4477 30 11 29.5523 11 29V1Z"/>
</mask>
<path d="M8 1C8 -1.20914 9.79086 -3 12 -3H15C17.2091 -3 19 -1.20914 19 1V3C19 3 18.5523 3 18 3H14L8 1ZM19 29C19 31.2091 17.2091 33 15 33H12C9.79086 33 8 31.2091 8 29L14 27H18C18.5523 27 19 27 19 27V29ZM12 33C9.79086 33 8 31.2091 8 29V1C8 -1.20914 9.79086 -3 12 -3L14 3V27L12 33ZM19 0V30V0Z" fill="white" mask="url(#path-1-inside-1_211_267)"/>
</svg>
