<svg width="30" height="30" viewBox="0 0 30 30" fill="none" xmlns="http://www.w3.org/2000/svg">
<g clip-path="url(#clip0_429_24)">
<circle cx="23.7657" cy="13.0761" r="2" transform="rotate(77.8506 23.7657 13.0761)" fill="white"/>
<path d="M22.1665 9.49217C22.482 10.9576 21.8062 11.6149 20.9347 12.3136C20.9335 12.3145 20.9334 12.3146 20.9323 12.3155C20.8961 12.3437 19.4349 13.4778 18.5292 13.9838C18.5095 13.9948 18.4888 14.0032 18.4671 14.0094C15.5949 14.8318 13.7097 15.4739 13.5 14.5C13.2895 13.5224 15.76 13.5749 17 13C17.4767 12.779 17.9504 12.6402 18.3174 12.2377C18.4291 12.1153 18.3872 11.9269 18.2464 11.8396C15.9406 10.4107 13.4988 9.65687 13.7672 8.61244C13.8727 8.20192 12.704 7.5 12 7.5C10 7.5 8.69926 9.37237 8 8.5C7.30074 7.62763 11.1906 6.01501 12 6C13.0188 5.9811 14.8094 7.29523 15 7C15.3836 6.40597 14.5 5.5 13.7672 5.16293C13.0344 4.82587 9 5.24312 9.00001 4.5C9.00001 3.49999 11.224 3.7 14 3.69999C17.0257 3.69999 21.8508 8.02577 22.1665 9.49217Z" fill="white"/>
<rect x="30" y="23.1638" width="3" height="8" rx="0.3" transform="rotate(90 30 23.1638)" fill="white"/>
<rect x="7" y="23.1638" width="3" height="7" rx="0.3" transform="rotate(90 7 23.1638)" fill="white"/>
<path d="M16.1741 17.6811C16.3415 17.588 16.5521 17.6736 16.6071 17.8571L17.8309 21.9362C17.9013 22.1709 17.6757 22.3865 17.4444 22.3055L16.2781 21.8973C16.1237 21.8433 15.9543 21.9234 15.8971 22.0766C15.0164 24.4352 14.551 25.4541 14.4759 27.1241C14.4686 27.2876 14.3357 27.4193 14.172 27.4193L12.2471 27.4193C12.0785 27.4193 11.9429 27.2789 11.9474 27.1103C12.0022 25.0395 12.0743 24.8273 13.6362 21.1764C13.6977 21.0326 13.6396 20.8632 13.5012 20.7904L12.4907 20.2584C12.2798 20.1473 12.2764 19.8464 12.4848 19.7307L16.1741 17.6811Z" fill="white"/>
<circle cx="3.25" cy="16.25" r="0.75" transform="rotate(90 3.25 16.25)" fill="white"/>
<circle cx="2.55" cy="20.75" r="0.75" transform="rotate(90 2.55 20.75)" fill="white"/>
<circle cx="25.75" cy="17.75" r="0.75" transform="rotate(90 25.75 17.75)" fill="white"/>
<circle cx="26.75" cy="20.75" r="0.75" transform="rotate(90 26.75 20.75)" fill="white"/>
<rect x="24.3578" y="18.3781" width="1" height="6.11114" rx="0.2" transform="rotate(46.5265 24.3578 18.3781)" fill="white"/>
<rect x="4.60001" y="18.6207" width="1" height="6.11114" rx="0.2" transform="rotate(-38.3652 4.60001 18.6207)" fill="white"/>
</g>
<rect x="0.5" y="0.5" width="29" height="29" stroke="white"/>
<defs>
<clipPath id="clip0_429_24">
<rect width="30" height="30" fill="white"/>
</clipPath>
</defs>
</svg>
