<svg width="30" height="30" viewBox="0 0 30 30" fill="none" xmlns="http://www.w3.org/2000/svg">
<rect x="0.5" y="0.5" width="29" height="29" stroke="white"/>
<path fill-rule="evenodd" clip-rule="evenodd" d="M15.7147 5.91764C13.1762 5.26347 11.3246 4.7863 7 4C7.18085 4.18085 7.65605 4.50887 8.22449 4.90126C10.7993 6.67862 15.2873 9.77661 3 6.5C3.33013 6.7476 3.67388 6.9952 4.00203 7.23155C5.66185 8.42708 6.92227 9.33493 4 8.5C13.2338 14.8926 10.3593 13.7175 7.38118 12.5001C6.16649 12.0036 4.93457 11.5 4.5 11.5C11 18 11 20 5.5 23C5.5 23 16 22.5 5.5 25H22L23 24L23.5 24.5C24 23.5 28.5 12 22.5 6L23.5 8.5C20.5 6.5 19.5 6 15.5 4.5L18 6.5C17.1452 6.2863 16.4046 6.09543 15.7147 5.91764ZM14.8 11.25C14.8 12.2165 15.5835 13 16.55 13C17.5165 13 18.3 12.2165 18.3 11.25C18.3 10.2835 17.5165 9.5 16.55 9.5C15.5835 9.5 14.8 10.2835 14.8 11.25ZM14.1854 14C14.0718 14 13.9675 14.0644 13.9179 14.1666C13 16.0575 13 17.0704 13 19.5C13 19.866 13.8038 20.1651 14.8231 20.5442C16.4931 21.1655 18.7413 22.0018 18.9793 23.7004C19.0023 23.8645 19.1343 24 19.3 24H20.7C20.8657 24 21.0011 23.865 20.9902 23.6996C20.8477 21.5281 19.175 20.1627 17.7815 19.6035C17.6277 19.5417 17.5429 19.3724 17.5929 19.2145C17.9695 18.0255 17.9977 17.484 17.9998 16.3004C18.0001 16.1348 18.1339 15.9989 18.2993 15.9896C18.788 15.9621 19.7753 15.8623 20.5 15.5C21.6564 14.729 22.2185 13.6609 22.4153 13.212C22.4696 13.0881 22.4219 12.9479 22.3093 12.8729L21.2827 12.1885C21.1326 12.0884 20.9291 12.1431 20.8415 12.3009C20.4236 13.053 20.0057 13.4928 19.5878 13.9121C19.5316 13.9684 19.4553 14 19.3757 14H14.1854ZM13.1793 21.3458C13.2508 21.1704 13.4561 21.0833 13.6232 21.1724L14.4747 21.6265C14.6425 21.716 14.6855 21.9377 14.5646 22.0845L14.537 22.1179C13.7694 23.0498 13.3942 23.5052 12.1759 23.9394C12.0688 23.9776 11.9492 23.9492 11.8689 23.8689L11.3432 23.3432C11.1855 23.1855 11.2496 22.9167 11.4572 22.8353C12.4488 22.4466 12.902 22.0257 13.1793 21.3458Z" fill="white"/>
</svg>
