<svg width="30" height="30" viewBox="0 0 30 30" fill="none" xmlns="http://www.w3.org/2000/svg">
<g clip-path="url(#clip0_210_92)">
<path d="M25.7157 13.0986C26.383 12.5195 26.0264 11.4229 25.1462 11.347L19.112 10.8267C18.7431 10.7949 18.422 10.5619 18.2774 10.2211L15.9212 4.67023C15.5763 3.85763 14.4245 3.85794 14.08 4.67073L11.7228 10.2323C11.5781 10.5738 11.2562 10.8071 10.8866 10.8385L4.86163 11.3496C3.98021 11.4244 3.6228 12.5227 4.29139 13.1019L8.8688 17.0673C9.14936 17.3103 9.27221 17.6888 9.18787 18.0503L7.81341 23.942C7.61245 24.8035 8.54668 25.4825 9.304 25.0254L14.4833 21.8994C14.8011 21.7076 15.1989 21.7076 15.5167 21.8994L20.6998 25.0277C21.4566 25.4844 22.3904 24.8067 22.1907 23.9457L20.8235 18.049C20.7398 17.6882 20.8625 17.3107 21.1422 17.0679L25.7157 13.0986ZM15.517 19.5627C15.1991 19.3704 14.8008 19.3703 14.4827 19.5623L12.3302 20.8618C11.5727 21.3191 10.6382 20.6398 10.8395 19.7782L11.4127 17.325C11.4972 16.9637 11.3745 16.5853 11.0942 16.3421L9.18395 14.685C8.51667 14.1062 8.87274 13.0097 9.75279 12.9334L12.2744 12.7146C12.6438 12.6826 12.9652 12.4487 13.1093 12.107L14.0802 9.80551C14.4238 8.99094 15.5779 8.99024 15.9225 9.80439L16.9028 12.1206C17.0472 12.4617 17.3683 12.695 17.7373 12.727L20.2597 12.9459C21.1398 13.0222 21.4958 14.1187 20.8286 14.6975L18.9183 16.3546C18.638 16.5978 18.5153 16.9762 18.5998 17.3375L19.1724 19.7883C19.3738 20.6502 18.4385 21.3295 17.6811 20.8715L15.517 19.5627Z" fill="white"/>
</g>
<defs>
<clipPath id="clip0_210_92">
<rect width="30" height="30" fill="white"/>
</clipPath>
</defs>
</svg>
