<svg width="30" height="30" viewBox="0 0 30 30" fill="none" xmlns="http://www.w3.org/2000/svg">
<g clip-path="url(#clip0_210_95)">
<path d="M18.7789 12.5C18.3385 12.5 17.95 12.212 17.822 11.7906L15.9568 5.65007C15.6695 4.70425 14.3305 4.70425 14.0432 5.65007L12.178 11.7906C12.05 12.212 11.6615 12.5 11.2211 12.5H5.62294C4.64986 12.5 4.24999 13.7488 5.04207 14.314L9.63693 17.5929C9.98796 17.8434 10.1389 18.2907 10.0113 18.7026L8.20989 24.5209C7.92221 25.45 8.99595 26.2014 9.7703 25.6127L14.3953 22.0971C14.7527 21.8254 15.2474 21.8253 15.605 22.0966L20.2441 25.6172C21.0186 26.205 22.0914 25.4536 21.8038 24.5249L20.001 18.7021C19.8735 18.2904 20.0242 17.8433 20.3748 17.5927L24.9627 14.3136C25.754 13.748 25.3539 12.5 24.3812 12.5H18.7789Z" fill="white"/>
</g>
<defs>
<clipPath id="clip0_210_95">
<rect width="30" height="30" fill="white"/>
</clipPath>
</defs>
</svg>
