<svg width="30" height="30" viewBox="0 0 30 30" fill="none" xmlns="http://www.w3.org/2000/svg">
<rect x="0.5" y="0.5" width="29" height="29" stroke="white"/>
<rect x="2" y="9" width="4" height="20" rx="0.3" fill="white"/>
<rect x="3.69183" y="3" width="7" height="1" rx="0.3" transform="rotate(43.7755 3.69183 3)" fill="white"/>
<rect x="8.68749" y="10.9048" width="5.35642" height="1" rx="0.3" transform="rotate(43.4321 8.68749 10.9048)" fill="white"/>
<rect x="10.0625" y="9.45238" width="5.35642" height="1" rx="0.3" transform="rotate(43.4321 10.0625 9.45238)" fill="white"/>
<rect x="11.4375" y="8" width="5.35642" height="1" rx="0.3" transform="rotate(43.4321 11.4375 8)" fill="white"/>
<circle cx="7.8" cy="16.8" r="0.5" fill="white"/>
<circle cx="10.65" cy="6.75" r="0.75" fill="white"/>
<circle cx="9.5" cy="4.5" r="0.5" fill="white"/>
<circle cx="13.5" cy="5.5" r="0.5" fill="white"/>
<circle cx="21.85" cy="13.25" r="2.25" fill="white"/>
<path d="M16.0684 9.7394C16.0287 9.60059 16.0936 9.45322 16.2227 9.38865L16.6906 9.15469C16.8539 9.07305 17.0517 9.15496 17.1094 9.32815L18.9649 14.8947C18.9876 14.9627 19.0338 15.0203 19.0952 15.0571L21.3817 16.429C21.4568 16.4741 21.5478 16.4841 21.6309 16.4564L27.2154 14.5949C27.3726 14.5425 27.5425 14.6274 27.5949 14.7846L27.9051 15.7154C27.9575 15.8726 27.8726 16.0425 27.7154 16.0949L22.1423 17.9526C22.0527 17.9824 21.9828 18.0525 21.9511 18.1415C21.381 19.7367 19.47 23.515 18.5 24C15.5748 25.4626 15.0265 25.9744 11.2929 27.3896C11.1339 27.4499 10.9553 27.366 10.9016 27.2047L10.5849 26.2547C10.5366 26.1097 10.605 25.9515 10.7438 25.8875L16.6094 23.1803C16.7989 23.0928 16.8434 22.8434 16.6958 22.6958L15.6311 21.6311C15.5508 21.5508 15.43 21.5233 15.3222 21.5593C12.571 22.4761 12.4444 22.509 9.7199 22.9633C9.58999 22.985 9.45981 22.9196 9.40091 22.8018L9.17183 22.3437C9.08455 22.1691 9.182 21.9591 9.37212 21.915C10.5007 21.6532 13.9336 20.8266 16 20C17.2522 19.4991 17.8781 17.028 17.9838 16.5723C17.9948 16.5248 17.993 16.4755 17.9796 16.4286L16.0684 9.7394Z" fill="white"/>
</svg>
