<svg width="30" height="30" viewBox="0 0 30 30" fill="none" xmlns="http://www.w3.org/2000/svg">
<rect x="0.5" y="0.5" width="29" height="29" stroke="white"/>
<circle cx="22.3094" cy="22.9177" r="1.64055" transform="rotate(115.371 22.3094 22.9177)" fill="white"/>
<path d="M24.8391 18C24.9394 18 25.0334 18.0501 25.0891 18.1336L25.6891 19.0336C25.822 19.233 25.6789 19.4996 25.4393 19.5011C24.2419 19.5084 23.3204 19.564 22.0316 19.9895C22.0108 19.9964 21.9905 20.0057 21.9718 20.0169L19.5317 21.481C19.5106 21.4936 19.4906 21.5094 19.4732 21.5268C18.1359 22.8641 18.0101 22.9973 17.6265 24.4975C17.5694 24.7209 17.2929 24.8009 17.1267 24.6411L16.4194 23.9613C16.3314 23.8767 16.3033 23.7468 16.3497 23.6339C16.9825 22.0938 17.4565 21.5494 18.2834 20.7171C18.4018 20.5978 18.4003 20.4048 18.2851 20.2823C17.4915 19.4388 16.5617 18.041 16.2739 17.3522C15.5451 15.6079 15.5026 15.0628 15.5002 14.17C15.4999 14.0646 15.5553 13.9668 15.6457 13.9126L16.1803 13.5918C16.3445 13.4933 16.5578 13.5718 16.619 13.7534L17.7181 17.0185C17.777 17.1935 17.9786 17.2742 18.142 17.1883L18.3081 17.1009C18.4226 17.0407 18.4854 16.912 18.4636 16.7845C18.0058 14.1168 17.8327 14.6285 17.5288 12.6886C17.5108 12.5738 17.5617 12.4589 17.6584 12.3944L18.5336 11.8109C18.733 11.678 19.0077 11.8199 19.0245 12.0589C19.0843 12.9097 19.2904 14.5808 20 16C20.3805 16.7611 21.0876 17.8673 21.3743 18.3082C21.4482 18.4218 21.5899 18.4697 21.7189 18.4283C23.0014 18.0165 23.5339 18.0006 24.8391 18Z" fill="white"/>
<path fill-rule="evenodd" clip-rule="evenodd" d="M12.3609 6.81405C12.176 6.89396 11.9507 6.80212 11.8861 6.61131C11.2967 4.87044 9.86594 4 8.00001 4C2.58427 4.49234 2.98609 13.711 5.38652 22.1086C5.44211 22.3031 5.6709 22.3861 5.8392 22.2739L6.81954 21.6203C6.92725 21.5485 6.97527 21.4106 6.94126 21.2857C3.13878 7.32166 7.3034 4.64086 10.2808 7.29296C10.4046 7.40316 10.4049 7.5941 10.2987 7.72133C8.39282 10.0062 6.68661 17.3961 10.8676 18.9533C10.9497 18.9839 11.0442 18.974 11.1183 18.9273C13.4715 17.4468 13.9662 14.9885 13.0528 8.84866C13.0257 8.6668 13.1666 8.49824 13.349 8.52168C14.9132 8.72274 15.4402 10.2844 15.8777 11.627C15.939 11.8151 16.1622 11.8919 16.3268 11.7821L17.3328 11.1114C17.434 11.044 17.4852 10.9223 17.457 10.8041C16.899 8.46853 14.6713 5.8158 12.3609 6.81405ZM11.2 10C12 11 11.5 16.5 10.7 16.5C10 15.5 10 11 11.2 10Z" fill="white"/>
</svg>
