<svg width="30" height="30" viewBox="0 0 30 30" fill="none" xmlns="http://www.w3.org/2000/svg">
<rect x="0.5" y="0.5" width="29" height="29" stroke="white"/>
<circle cx="13.3" cy="5.2" r="2" fill="white"/>
<path d="M9.99999 6.2C11.5 6.2 12 7 12.5 8C12.5 8 13.3 9.5 13.3 10C13.5 13.5 14 14.5 13 14.5C12 14.5 12.5 14.5 12 10.5C11.938 10.0039 12 10 11.5 9.5C9.49999 11.5 7.99999 14 6.99999 13.5C6.62087 13.3104 6.2 14.296 6.19999 15C6.19999 15.5 7.49999 18.5 6.5 19C5.5 19.5 4.84433 15.2944 4.99999 14.5C5.19595 13.5 6.24849 12.2485 5.99999 12C5.49999 11.5 4.49999 12.5 3.99999 13.5C3.49999 14.5 3.3 17.2 2.8 17.2C1.65026 17.2 2.5 14.5 2.99999 12.5C3.5 11 8.49999 6.2 9.99999 6.2Z" fill="white"/>
<rect x="23.5" y="1.5" width="3" height="10" rx="0.3" fill="white"/>
<rect x="23.5" y="24.5" width="3" height="5" rx="0.3" fill="white"/>
<path d="M15 13.3595C15 13.1723 15.1695 13.0308 15.3537 13.0643L19.824 13.8771C20.0816 13.9239 20.1598 14.2552 19.9503 14.4123L18.7767 15.2925C18.6307 15.402 18.6156 15.6158 18.7456 15.744C21.0387 18.0053 22.5044 18.9814 24.8113 19.9237C24.9249 19.9701 25 20.0804 25 20.2031V22.28C25 22.4858 24.7967 22.6304 24.6025 22.5622C21.4273 21.4481 19.5024 20.4184 17.1806 17.2497C17.0811 17.1139 16.8891 17.0832 16.7544 17.1842L15.48 18.14C15.2822 18.2883 15 18.1472 15 17.9V13.3595Z" fill="white"/>
<circle cx="10.75" cy="23.75" r="0.75" fill="white"/>
<circle cx="14.75" cy="26.85" r="0.75" fill="white"/>
<circle cx="18.75" cy="7.75" r="0.75" fill="white"/>
<rect x="19.5187" y="10.3765" width="1" height="6.11114" rx="0.2" transform="rotate(-35.2597 19.5187 10.3765)" fill="white"/>
<rect x="17" y="26.7" width="1" height="6.11114" rx="0.2" transform="rotate(-113.298 17 26.7)" fill="white"/>
</svg>
