<svg width="30" height="30" viewBox="0 0 30 30" fill="none" xmlns="http://www.w3.org/2000/svg">
<rect x="0.5" y="0.5" width="29" height="29" stroke="white"/>
<rect x="22.3" y="24" width="4" height="5" rx="0.3" fill="white"/>
<rect x="22.3" width="4" height="6" rx="0.3" fill="white"/>
<rect x="18.6918" y="4.4" width="6.10882" height="1" rx="0.3" transform="rotate(43.7755 18.6918 4.4)" fill="white"/>
<rect x="18" y="24.3196" width="6.10882" height="1" rx="0.3" transform="rotate(-45 18 24.3196)" fill="white"/>
<rect x="1.40944" y="16.2985" width="5.35642" height="1" rx="0.3" fill="white"/>
<rect x="1.35472" y="14.2992" width="5.35642" height="1" rx="0.3" fill="white"/>
<rect x="1.3" y="12.3" width="5.35642" height="1" rx="0.3" fill="white"/>
<circle cx="17" cy="26" r="1" fill="white"/>
<circle cx="20.75" cy="26.25" r="0.75" fill="white"/>
<circle cx="16.75" cy="3.75" r="0.75" fill="white"/>
<circle cx="20.5" cy="2.5" r="0.5" fill="white"/>
<circle cx="14.25" cy="8.25" r="2.25" fill="white"/>
<path d="M7.91419 10.2231C7.9644 10.0925 8.09818 10.014 8.23664 10.0338C11.5618 10.5092 14.8564 10.9947 16.8334 11.9195C16.9363 11.9676 17.0001 12.0718 16.9994 12.1854C16.9798 15.0579 16.5112 17.9021 16.0325 19.4003C16.0117 19.4655 15.9686 19.5202 15.9111 19.5572L9.23052 23.8518C9.09998 23.9357 8.92697 23.9062 8.83161 23.7838L8.20523 22.9795C8.09562 22.8388 8.1323 22.6341 8.28396 22.5402L13.3539 19.4002C13.5852 19.2569 13.5216 18.9043 13.2547 18.8509L11.6219 18.5244C11.5438 18.5088 11.4628 18.5248 11.3966 18.5689L7.29354 21.3043C7.13967 21.4069 6.93054 21.3472 6.85402 21.1788L6.59912 20.6181C6.54114 20.4905 6.57994 20.3393 6.69135 20.2543C8.99251 18.4999 9.54865 17.9765 11.8922 16.5648C11.9603 16.5238 12.0108 16.4566 12.0301 16.3794L12.9326 12.7695C12.9706 12.6174 12.8851 12.4615 12.7358 12.4136C10.282 11.6277 8.53497 11.5135 7.78541 11.3734C7.62408 11.3433 7.54735 11.1769 7.60627 11.0237L7.91419 10.2231Z" fill="white"/>
<path d="M19 13.2C19 13.0895 19.0895 13 19.2 13H21.8C21.9105 13 22 12.9105 22 12.8V11.9348C22 11.764 22.2004 11.6718 22.3302 11.783L25.336 14.3594C25.4245 14.4353 25.4297 14.5703 25.3473 14.6527L22.3414 17.6586C22.2154 17.7846 22 17.6953 22 17.5172V16.2C22 16.0895 21.9105 16 21.8 16H19.2C19.0895 16 19 15.9105 19 15.8V13.2Z" fill="white"/>
</svg>
